<svg width="16" height="16" viewBox="0 0 16 16" fill="none" xmlns="http://www.w3.org/2000/svg">
<path d="M4.40033 9.936C4.16033 9.92 3.93633 9.904 3.71233 9.888C3.07233 9.808 2.44833 9.6 1.90433 9.264C1.36033 8.928 0.912332 8.464 0.608332 7.904C0.352332 7.456 0.208332 6.96 0.160332 6.448C0.0963325 5.856 0.208332 5.264 0.448332 4.736C0.576332 4.48 0.736332 4.224 0.928332 4.016C1.47233 3.424 2.22433 3.04 3.02433 2.96C4.06433 2.832 5.10433 3.136 5.88833 3.824C6.67233 4.496 7.21633 5.408 7.42433 6.416C7.44033 6.48 7.45633 6.56 7.47233 6.64C7.93633 6.56 8.40033 6.544 8.86433 6.624C8.88033 6.512 8.91233 6.4 8.92833 6.304C9.10433 5.552 9.45633 4.864 9.96833 4.272C10.5603 3.568 11.4083 3.104 12.3203 3.008C12.9603 2.928 13.6323 3.04 14.2083 3.328C15.1203 3.76 15.7603 4.64 15.8563 5.648C16.0003 6.64 15.6963 7.648 15.0563 8.4C14.5283 9.04 13.8083 9.488 12.9923 9.664C12.6723 9.744 12.3363 9.776 12.0003 9.84C12.0163 9.984 12.0163 10.144 12.0323 10.304C12.0323 10.336 12.0163 10.384 12.0003 10.416C11.9843 10.448 11.9683 10.496 11.9683 10.544C11.9523 10.736 11.9683 10.944 11.9523 11.136C11.9203 11.488 11.8083 11.84 11.6323 12.16C11.4403 12.56 11.1683 12.912 10.8483 13.216C10.3683 13.664 9.77633 14 9.13633 14.16C8.72033 14.272 8.28833 14.304 7.85633 14.256C6.51233 14.128 5.32833 13.312 4.75233 12.08C4.54433 11.664 4.43233 11.216 4.40033 10.736C4.38433 10.48 4.40033 10.224 4.40033 9.968C4.40033 9.968 4.40033 9.952 4.40033 9.936ZM11.7923 10.512C9.42433 10.72 7.04033 10.752 4.67233 10.576C4.67233 10.88 4.73633 11.168 4.83233 11.44C5.13633 12.256 5.74433 12.928 6.54433 13.296C7.34433 13.712 8.27233 13.824 9.15233 13.632C9.76033 13.504 10.3203 13.216 10.7843 12.8C11.2643 12.352 11.5843 11.776 11.7123 11.12C11.7443 10.928 11.7603 10.72 11.7923 10.512ZM6.32033 7.472C5.63233 7.488 5.07233 8.048 5.08833 8.736C5.08833 8.848 5.10433 8.96 5.13633 9.072C5.16833 9.232 5.26433 9.376 5.40833 9.472C5.56833 9.568 5.74433 9.584 5.92033 9.536C6.52833 9.36 6.97633 8.848 7.10433 8.224C7.18433 7.904 6.99233 7.584 6.67233 7.504C6.65633 7.504 6.64033 7.504 6.62433 7.488C6.52833 7.504 6.43233 7.488 6.32033 7.472ZM10.4003 7.456C10.3203 7.472 10.2083 7.488 10.0803 7.52C9.95233 7.536 9.84033 7.648 9.82433 7.776C9.80833 7.904 9.80833 8.032 9.82433 8.176C9.92033 8.576 10.1283 8.928 10.4483 9.184C10.6083 9.328 10.8003 9.44 11.0083 9.504C11.1843 9.568 11.3763 9.504 11.4883 9.344C11.7283 8.96 11.7443 8.48 11.5043 8.096C11.2803 7.696 10.8483 7.44 10.4003 7.456Z" fill="black"/>
</svg>
